<svg xmlns="http://www.w3.org/2000/svg" width="1600" height="720" viewBox="0 0 1600 720"><rect width="1600" height="720" fill="white"/>
<text x="45" y="73" font-family="Arial, sans-serif" font-size="43" font-weight="bold" fill="#152E42">Filter eligible sources before assembling context</text>
<rect x="45" y="150" width="450" height="180" rx="15" fill="#E8F3F7" stroke="#087F8C" stroke-width="3"/>
<text x="63" y="198" font-family="Arial, sans-serif" font-size="32" font-weight="bold" fill="#152E42">Source manifest</text>
<text x="63" y="243" font-family="Arial, sans-serif" font-size="28" font-weight="normal" fill="#152E42">ID, status, version</text>
<text x="63" y="281" font-family="Arial, sans-serif" font-size="28" font-weight="normal" fill="#152E42">permission and owner</text>
<rect x="565" y="150" width="450" height="180" rx="15" fill="#E8F3F7" stroke="#087F8C" stroke-width="3"/>
<text x="583" y="198" font-family="Arial, sans-serif" font-size="32" font-weight="bold" fill="#152E42">Eligibility filter</text>
<text x="583" y="243" font-family="Arial, sans-serif" font-size="28" font-weight="normal" fill="#152E42">Approved + current</text>
<text x="583" y="281" font-family="Arial, sans-serif" font-size="28" font-weight="normal" fill="#152E42">and allowed permission</text>
<rect x="1085" y="150" width="450" height="180" rx="15" fill="#E8F3F7" stroke="#087F8C" stroke-width="3"/>
<text x="1103" y="198" font-family="Arial, sans-serif" font-size="32" font-weight="bold" fill="#152E42">Rank evidence</text>
<text x="1103" y="243" font-family="Arial, sans-serif" font-size="28" font-weight="normal" fill="#152E42">Search only the</text>
<text x="1103" y="281" font-family="Arial, sans-serif" font-size="28" font-weight="normal" fill="#152E42">eligible records</text>
<line x1="495" y1="240" x2="565" y2="240" stroke="#087F8C" stroke-width="4"/>
<polygon points="565,240 549.2035138859733,248.62965969487564 549.2035138859733,231.37034030512436" fill="#087F8C"/>
<line x1="1015" y1="240" x2="1085" y2="240" stroke="#087F8C" stroke-width="4"/>
<polygon points="1085,240 1069.2035138859733,248.62965969487564 1069.2035138859733,231.37034030512436" fill="#087F8C"/>
<rect x="45" y="440" width="450" height="150" rx="15" fill="#FBE7E4" stroke="#087F8C" stroke-width="3"/>
<text x="63" y="488" font-family="Arial, sans-serif" font-size="32" font-weight="bold" fill="#152E42">Exclude restricted</text>
<text x="63" y="533" font-family="Arial, sans-serif" font-size="28" font-weight="normal" fill="#152E42">Draft, stale or denied</text>
<rect x="565" y="440" width="450" height="150" rx="15" fill="#E8F3F7" stroke="#087F8C" stroke-width="3"/>
<text x="583" y="488" font-family="Arial, sans-serif" font-size="32" font-weight="bold" fill="#152E42">Assemble context</text>
<text x="583" y="533" font-family="Arial, sans-serif" font-size="28" font-weight="normal" fill="#152E42">Preserve source IDs</text>
<rect x="1085" y="440" width="450" height="150" rx="15" fill="#FFEBBC" stroke="#087F8C" stroke-width="3"/>
<text x="1103" y="488" font-family="Arial, sans-serif" font-size="32" font-weight="bold" fill="#152E42">Answer or abstain</text>
<text x="1103" y="533" font-family="Arial, sans-serif" font-size="28" font-weight="normal" fill="#152E42">Check claim support</text>
<line x1="1310" y1="330" x2="1310" y2="385" stroke="#087F8C" stroke-width="4"/>
<line x1="1310" y1="385" x2="785" y2="385" stroke="#087F8C" stroke-width="4"/>
<line x1="785" y1="385" x2="785" y2="440" stroke="#087F8C" stroke-width="4"/>
<polygon points="785,440 776.3703403051244,424.2035138859733 793.6296596948756,424.2035138859733" fill="#087F8C"/>
<line x1="565" y1="290" x2="490" y2="440" stroke="#087F8C" stroke-width="4"/>
<polygon points="490,440 489.34580107114624,422.0118921572755 504.78300563149185,429.73049443744833" fill="#087F8C"/>
<line x1="1015" y1="515" x2="1085" y2="515" stroke="#087F8C" stroke-width="4"/>
<polygon points="1085,515 1069.2035138859733,523.6296596948756 1069.2035138859733,506.37034030512433" fill="#087F8C"/>
<text x="45" y="672" font-family="Arial, sans-serif" font-size="27" font-weight="normal" fill="#152E42">The local exercise uses lexical search. Live model quality needs separate evaluation.</text></svg>